<svg width="36" height="36" viewBox="0 0 36 36" fill="none" xmlns="http://www.w3.org/2000/svg">
<path d="M10 5L6 10.2V28.4C6 29.0896 6.28095 29.7509 6.78105 30.2385C7.28115 30.7261 7.95942 31 8.66667 31H27.3333C28.0406 31 28.7189 30.7261 29.219 30.2385C29.719 29.7509 30 29.0896 30 28.4V10.2L26 5H10Z" stroke="#242424" stroke-linecap="round" stroke-linejoin="round"/>
<path d="M6 10H30" stroke="#242424" stroke-linecap="round" stroke-linejoin="round"/>
<path d="M23 15C23 16.5913 22.4732 18.1174 21.5355 19.2426C20.5979 20.3679 19.3261 21 18 21C16.6739 21 15.4021 20.3679 14.4645 19.2426C13.5268 18.1174 13 16.5913 13 15" stroke="#242424" stroke-linecap="round" stroke-linejoin="round"/>
</svg>
