<svg width="36" height="36" viewBox="0 0 36 36" fill="none" xmlns="http://www.w3.org/2000/svg">
<path d="M12.4 10.7778V7.88889C12.4 7.12271 12.695 6.38791 13.2201 5.84614C13.7452 5.30436 14.4574 5 15.2 5H20.8C21.5426 5 22.2548 5.30436 22.7799 5.84614C23.305 6.38791 23.6 7.12271 23.6 7.88889V10.7778M12.4 10.7778H5.86667C4.32027 10.7778 4 11.1082 4 12.7037V29.0741C4 30.6696 4.32027 31 5.86667 31H30.1333C31.6797 31 32 30.6696 32 29.0741V12.7037C32 11.1082 31.6797 10.7778 30.1333 10.7778H23.6M12.4 10.7778H23.6M32 16.5556C32 18.151 30.7464 19.4444 29.2 19.4444H20.8M4 16.5556C4 18.151 5.2536 19.4444 6.8 19.4444H15.2M15.2 19.4444V21.8519H20.8V19.4444M15.2 19.4444V17.037H20.8V19.4444" stroke="#242424" stroke-linecap="round" stroke-linejoin="round"/>
</svg>
