<svg width="24" height="32" viewBox="0 0 24 32" fill="none" xmlns="http://www.w3.org/2000/svg">
<path d="M17.0252 26.9739H6.93525C6.93132 26.9739 6.92736 26.9738 6.92338 26.9737M17.0252 26.9739C17.223 26.9739 17.3813 26.8945 17.5 26.7755C17.6187 26.6565 17.6978 26.4582 17.6978 26.2598C17.6978 26.2201 17.5 22.4911 19.241 20.7456L19.3597 20.6266C21.6547 18.524 23 15.5487 23 12.4544C23 6.38472 18.054 1 12 1C5.94604 1 1 6.38472 1 12.4544C1 15.628 2.38489 18.6827 4.71942 20.7456C6.46043 22.4911 6.30216 26.2201 6.26259 26.2598C6.26259 26.4582 6.30216 26.6169 6.46043 26.7755C6.57619 26.8916 6.76719 26.9699 6.92338 26.9737M17.0252 26.9739V29.399C17.0252 30.2757 16.2816 31 15.3814 31H8.56715C7.66699 31 6.92338 30.2757 6.92338 29.399V26.9737" stroke="#BE1816" stroke-width="2" stroke-linecap="round"/>
</svg>
