<svg width="27" height="26" viewBox="0 0 27 26" fill="none" xmlns="http://www.w3.org/2000/svg">
<path d="M24.1746 5.60312L14.8396 1.34688C13.8277 0.884375 12.1715 0.884375 11.1596 1.34688L1.83086 5.60312C0.730859 6.10312 0.730859 6.92125 1.83086 7.42125L11.0809 11.64C12.1365 12.1213 13.874 12.1213 14.9296 11.64L24.1796 7.42125C25.2746 6.92125 25.2746 6.1025 24.1746 5.60312Z" stroke="#BE1816" stroke-width="2" stroke-linecap="round" stroke-linejoin="round"/>
<path d="M6.99961 16.2823L1.83086 18.6016C0.730859 19.1016 0.730859 19.9204 1.83086 20.4204L11.0809 24.6391C12.1365 25.1197 13.874 25.1197 14.9296 24.6391L24.1796 20.4204C25.2796 19.9204 25.2796 19.1016 24.1796 18.6016L19.1834 16.1973" stroke="#BE1816" stroke-width="2" stroke-linecap="round" stroke-linejoin="round"/>
<path d="M7 9.7793L1.825 12.1018C0.725 12.6018 0.725 13.4205 1.825 13.9205L11.075 18.1387C12.1306 18.6199 13.8681 18.6199 14.9237 18.1387L24.1737 13.9205C25.28 13.4205 25.28 12.6018 24.18 12.1018L19 9.7793" stroke="#BE1816" stroke-width="2" stroke-linecap="round" stroke-linejoin="round"/>
</svg>
