<svg width="36" height="36" viewBox="0 0 36 36" fill="none" xmlns="http://www.w3.org/2000/svg">
<path d="M12.3343 7.58817L12.3344 6.83141V5.64786C12.3344 5.26494 12.701 5.0909 13.0677 5.0909H15.001C15.4496 3.79488 16.649 2.95048 17.9677 3.00225C19.301 3.00225 20.4677 3.69847 20.9344 5.0909H22.901C23.2677 5.0909 23.6676 5.26494 23.6676 5.64786V6.83141L23.6676 7.58817M12.3343 7.58817L12.3343 8.22391V9.99927C12.3695 10.3893 12.693 10.6811 13.0676 10.6607H22.9009C23.0849 10.6712 23.266 10.609 23.408 10.4864C23.5501 10.3639 23.6427 10.1899 23.6676 9.99927V8.22385L23.6676 7.58817M12.3343 7.58817H9.80099C8.29973 7.60489 7.07154 8.84168 7.00098 10.4078V30.3544C7.00098 31.8861 8.33431 33 9.80099 33H26.201C27.6676 33 29.001 31.8861 29.001 30.3544V10.4079C28.9304 8.84168 27.7022 7.60489 26.201 7.58817H23.6676" stroke="#242424"/>
<path d="M11 15L12 16L14.5 13.5" stroke="#242424" stroke-linecap="round"/>
<path d="M11 21L12 22L14.5 19.5" stroke="#242424" stroke-linecap="round"/>
<path d="M11 27L12 28L14.5 25.5" stroke="#242424" stroke-linecap="round"/>
<path d="M18 15H25" stroke="#242424" stroke-linecap="round"/>
<path d="M18 21H25" stroke="#242424" stroke-linecap="round"/>
<path d="M18 27H25" stroke="#242424" stroke-linecap="round"/>
</svg>
